<svg xmlns="http://www.w3.org/2000/svg" viewBox="0 0 238.13 183.98"><defs><style>.cls-1{fill:#97c1f1;}</style></defs><title>blue-el@512x</title><g id="Layer_2" data-name="Layer 2"><g id="OBJECTS"><path class="cls-1" d="M2.07,0A2.07,2.07,0,1,0,4.13,2.07,2.07,2.07,0,0,0,2.07,0Z"/><path class="cls-1" d="M15.83,0A2.07,2.07,0,1,0,17.9,2.07,2.07,2.07,0,0,0,15.83,0Z"/><path class="cls-1" d="M29.6,0a2.07,2.07,0,1,0,2.06,2.07A2.07,2.07,0,0,0,29.6,0Z"/><path class="cls-1" d="M43.36,0a2.07,2.07,0,1,0,2.07,2.07A2.07,2.07,0,0,0,43.36,0Z"/><path class="cls-1" d="M57.12,0a2.07,2.07,0,1,0,2.07,2.07A2.07,2.07,0,0,0,57.12,0Z"/><path class="cls-1" d="M70.89,0A2.07,2.07,0,1,0,73,2.07,2.07,2.07,0,0,0,70.89,0Z"/><path class="cls-1" d="M84.65,0a2.07,2.07,0,1,0,2.07,2.07A2.07,2.07,0,0,0,84.65,0Z"/><path class="cls-1" d="M98.42,0a2.07,2.07,0,1,0,2.06,2.07A2.07,2.07,0,0,0,98.42,0Z"/><path class="cls-1" d="M112.18,0a2.07,2.07,0,1,0,2.07,2.07A2.07,2.07,0,0,0,112.18,0Z"/><path class="cls-1" d="M125.94,0A2.07,2.07,0,1,0,128,2.07,2.07,2.07,0,0,0,125.94,0Z"/><path class="cls-1" d="M139.71,0a2.07,2.07,0,1,0,2.07,2.07A2.07,2.07,0,0,0,139.71,0Z"/><path class="cls-1" d="M153.47,0a2.07,2.07,0,1,0,2.07,2.07A2.07,2.07,0,0,0,153.47,0Z"/><path class="cls-1" d="M167.24,0a2.07,2.07,0,1,0,2.06,2.07A2.07,2.07,0,0,0,167.24,0Z"/><path class="cls-1" d="M181,0a2.07,2.07,0,1,0,2.07,2.07A2.07,2.07,0,0,0,181,0Z"/><path class="cls-1" d="M194.77,0a2.07,2.07,0,1,0,2.06,2.07A2.07,2.07,0,0,0,194.77,0Z"/><path class="cls-1" d="M208.53,0a2.07,2.07,0,1,0,2.07,2.07A2.07,2.07,0,0,0,208.53,0Z"/><path class="cls-1" d="M222.29,0a2.07,2.07,0,1,0,2.07,2.07A2.07,2.07,0,0,0,222.29,0Z"/><path class="cls-1" d="M236.06,0a2.07,2.07,0,1,0,2.07,2.07A2.07,2.07,0,0,0,236.06,0Z"/><path class="cls-1" d="M2.07,13.83A2.07,2.07,0,1,0,4.13,15.9,2.07,2.07,0,0,0,2.07,13.83Z"/><path class="cls-1" d="M15.83,13.83A2.07,2.07,0,1,0,17.9,15.9,2.07,2.07,0,0,0,15.83,13.83Z"/><path class="cls-1" d="M29.6,13.83a2.07,2.07,0,1,0,2.06,2.07A2.07,2.07,0,0,0,29.6,13.83Z"/><path class="cls-1" d="M43.36,13.83a2.07,2.07,0,1,0,2.07,2.07A2.07,2.07,0,0,0,43.36,13.83Z"/><path class="cls-1" d="M57.12,13.83a2.07,2.07,0,1,0,2.07,2.07A2.07,2.07,0,0,0,57.12,13.83Z"/><path class="cls-1" d="M70.89,13.83A2.07,2.07,0,1,0,73,15.9,2.07,2.07,0,0,0,70.89,13.83Z"/><path class="cls-1" d="M84.65,13.83a2.07,2.07,0,1,0,2.07,2.07A2.07,2.07,0,0,0,84.65,13.83Z"/><path class="cls-1" d="M98.42,13.83a2.07,2.07,0,1,0,2.06,2.07A2.07,2.07,0,0,0,98.42,13.83Z"/><path class="cls-1" d="M112.18,13.83a2.07,2.07,0,1,0,2.07,2.07A2.07,2.07,0,0,0,112.18,13.83Z"/><path class="cls-1" d="M125.94,13.83A2.07,2.07,0,1,0,128,15.9,2.07,2.07,0,0,0,125.94,13.83Z"/><path class="cls-1" d="M139.71,13.83a2.07,2.07,0,1,0,2.07,2.07A2.07,2.07,0,0,0,139.71,13.83Z"/><path class="cls-1" d="M153.47,13.83a2.07,2.07,0,1,0,2.07,2.07A2.07,2.07,0,0,0,153.47,13.83Z"/><path class="cls-1" d="M167.24,13.83a2.07,2.07,0,1,0,2.06,2.07A2.07,2.07,0,0,0,167.24,13.83Z"/><path class="cls-1" d="M181,13.83a2.07,2.07,0,1,0,2.07,2.07A2.07,2.07,0,0,0,181,13.83Z"/><path class="cls-1" d="M194.77,13.83a2.07,2.07,0,1,0,2.06,2.07A2.07,2.07,0,0,0,194.77,13.83Z"/><path class="cls-1" d="M208.53,13.83a2.07,2.07,0,1,0,2.07,2.07A2.07,2.07,0,0,0,208.53,13.83Z"/><path class="cls-1" d="M222.29,13.83a2.07,2.07,0,1,0,2.07,2.07A2.07,2.07,0,0,0,222.29,13.83Z"/><path class="cls-1" d="M236.06,13.83a2.07,2.07,0,1,0,2.07,2.07A2.07,2.07,0,0,0,236.06,13.83Z"/><path class="cls-1" d="M2.07,27.67a2.07,2.07,0,1,0,2.06,2.07A2.07,2.07,0,0,0,2.07,27.67Z"/><path class="cls-1" d="M15.83,27.67a2.07,2.07,0,1,0,2.07,2.07A2.07,2.07,0,0,0,15.83,27.67Z"/><path class="cls-1" d="M29.6,27.67a2.07,2.07,0,1,0,2.06,2.07A2.06,2.06,0,0,0,29.6,27.67Z"/><path class="cls-1" d="M43.36,27.67a2.07,2.07,0,1,0,2.07,2.07A2.07,2.07,0,0,0,43.36,27.67Z"/><path class="cls-1" d="M57.12,27.67a2.07,2.07,0,1,0,2.07,2.07A2.06,2.06,0,0,0,57.12,27.67Z"/><path class="cls-1" d="M70.89,27.67A2.07,2.07,0,1,0,73,29.74,2.07,2.07,0,0,0,70.89,27.67Z"/><path class="cls-1" d="M84.65,27.67a2.07,2.07,0,1,0,2.07,2.07A2.06,2.06,0,0,0,84.65,27.67Z"/><path class="cls-1" d="M98.42,27.67a2.07,2.07,0,1,0,2.06,2.07A2.06,2.06,0,0,0,98.42,27.67Z"/><path class="cls-1" d="M112.18,27.67a2.07,2.07,0,1,0,2.07,2.07A2.07,2.07,0,0,0,112.18,27.67Z"/><path class="cls-1" d="M125.94,27.67A2.07,2.07,0,1,0,128,29.74,2.06,2.06,0,0,0,125.94,27.67Z"/><path class="cls-1" d="M139.71,27.67a2.07,2.07,0,1,0,2.07,2.07A2.07,2.07,0,0,0,139.71,27.67Z"/><path class="cls-1" d="M153.47,27.67a2.07,2.07,0,1,0,2.07,2.07A2.06,2.06,0,0,0,153.47,27.67Z"/><path class="cls-1" d="M167.24,27.67a2.07,2.07,0,1,0,2.06,2.07A2.07,2.07,0,0,0,167.24,27.67Z"/><path class="cls-1" d="M181,27.67a2.07,2.07,0,1,0,2.07,2.07A2.07,2.07,0,0,0,181,27.67Z"/><path class="cls-1" d="M194.77,27.67a2.07,2.07,0,1,0,2.06,2.07A2.06,2.06,0,0,0,194.77,27.67Z"/><path class="cls-1" d="M208.53,27.67a2.07,2.07,0,1,0,2.07,2.07A2.07,2.07,0,0,0,208.53,27.67Z"/><path class="cls-1" d="M222.29,27.67a2.07,2.07,0,1,0,2.07,2.07A2.06,2.06,0,0,0,222.29,27.67Z"/><path class="cls-1" d="M236.06,27.67a2.07,2.07,0,1,0,2.07,2.07A2.07,2.07,0,0,0,236.06,27.67Z"/><path class="cls-1" d="M2.07,41.5a2.07,2.07,0,1,0,2.06,2.07A2.07,2.07,0,0,0,2.07,41.5Z"/><path class="cls-1" d="M15.83,41.5a2.07,2.07,0,1,0,2.07,2.07A2.07,2.07,0,0,0,15.83,41.5Z"/><path class="cls-1" d="M29.6,41.5a2.07,2.07,0,1,0,2.06,2.07A2.07,2.07,0,0,0,29.6,41.5Z"/><path class="cls-1" d="M43.36,41.5a2.07,2.07,0,1,0,2.07,2.07A2.07,2.07,0,0,0,43.36,41.5Z"/><path class="cls-1" d="M57.12,41.5a2.07,2.07,0,1,0,2.07,2.07A2.07,2.07,0,0,0,57.12,41.5Z"/><path class="cls-1" d="M70.89,41.5A2.07,2.07,0,1,0,73,43.57,2.07,2.07,0,0,0,70.89,41.5Z"/><path class="cls-1" d="M84.65,41.5a2.07,2.07,0,1,0,2.07,2.07A2.07,2.07,0,0,0,84.65,41.5Z"/><path class="cls-1" d="M98.42,41.5a2.07,2.07,0,1,0,2.06,2.07A2.07,2.07,0,0,0,98.42,41.5Z"/><path class="cls-1" d="M112.18,41.5a2.07,2.07,0,1,0,2.07,2.07A2.07,2.07,0,0,0,112.18,41.5Z"/><path class="cls-1" d="M125.94,41.5A2.07,2.07,0,1,0,128,43.57,2.07,2.07,0,0,0,125.94,41.5Z"/><path class="cls-1" d="M139.71,41.5a2.07,2.07,0,1,0,2.07,2.07A2.07,2.07,0,0,0,139.71,41.5Z"/><path class="cls-1" d="M153.47,41.5a2.07,2.07,0,1,0,2.07,2.07A2.07,2.07,0,0,0,153.47,41.5Z"/><path class="cls-1" d="M167.24,41.5a2.07,2.07,0,1,0,2.06,2.07A2.07,2.07,0,0,0,167.24,41.5Z"/><path class="cls-1" d="M181,41.5a2.07,2.07,0,1,0,2.07,2.07A2.07,2.07,0,0,0,181,41.5Z"/><path class="cls-1" d="M194.77,41.5a2.07,2.07,0,1,0,2.06,2.07A2.07,2.07,0,0,0,194.77,41.5Z"/><path class="cls-1" d="M208.53,41.5a2.07,2.07,0,1,0,2.07,2.07A2.07,2.07,0,0,0,208.53,41.5Z"/><path class="cls-1" d="M222.29,41.5a2.07,2.07,0,1,0,2.07,2.07A2.07,2.07,0,0,0,222.29,41.5Z"/><path class="cls-1" d="M236.06,41.5a2.07,2.07,0,1,0,2.07,2.07A2.07,2.07,0,0,0,236.06,41.5Z"/><path class="cls-1" d="M2.07,55.34A2.07,2.07,0,1,0,4.13,57.4,2.07,2.07,0,0,0,2.07,55.34Z"/><path class="cls-1" d="M15.83,55.34A2.07,2.07,0,1,0,17.9,57.4,2.07,2.07,0,0,0,15.83,55.34Z"/><path class="cls-1" d="M29.6,55.34a2.07,2.07,0,1,0,2.06,2.06A2.06,2.06,0,0,0,29.6,55.34Z"/><path class="cls-1" d="M43.36,55.34a2.07,2.07,0,1,0,2.07,2.06A2.07,2.07,0,0,0,43.36,55.34Z"/><path class="cls-1" d="M57.12,55.34a2.07,2.07,0,1,0,2.07,2.06A2.06,2.06,0,0,0,57.12,55.34Z"/><path class="cls-1" d="M70.89,55.34A2.07,2.07,0,1,0,73,57.4,2.07,2.07,0,0,0,70.89,55.34Z"/><path class="cls-1" d="M84.65,55.34a2.07,2.07,0,1,0,2.07,2.06A2.06,2.06,0,0,0,84.65,55.34Z"/><path class="cls-1" d="M98.42,55.34a2.07,2.07,0,1,0,2.06,2.06A2.06,2.06,0,0,0,98.42,55.34Z"/><path class="cls-1" d="M112.18,55.34a2.07,2.07,0,1,0,2.07,2.06A2.07,2.07,0,0,0,112.18,55.34Z"/><path class="cls-1" d="M125.94,55.34A2.07,2.07,0,1,0,128,57.4,2.06,2.06,0,0,0,125.94,55.34Z"/><path class="cls-1" d="M139.71,55.34a2.07,2.07,0,1,0,2.07,2.06A2.07,2.07,0,0,0,139.71,55.34Z"/><path class="cls-1" d="M153.47,55.34a2.07,2.07,0,1,0,2.07,2.06A2.06,2.06,0,0,0,153.47,55.34Z"/><path class="cls-1" d="M167.24,55.34a2.07,2.07,0,1,0,2.06,2.06A2.07,2.07,0,0,0,167.24,55.34Z"/><path class="cls-1" d="M181,55.34a2.07,2.07,0,1,0,2.07,2.06A2.07,2.07,0,0,0,181,55.34Z"/><path class="cls-1" d="M194.77,55.34a2.07,2.07,0,1,0,2.06,2.06A2.06,2.06,0,0,0,194.77,55.34Z"/><path class="cls-1" d="M208.53,55.34a2.07,2.07,0,1,0,2.07,2.06A2.07,2.07,0,0,0,208.53,55.34Z"/><path class="cls-1" d="M222.29,55.34a2.07,2.07,0,1,0,2.07,2.06A2.06,2.06,0,0,0,222.29,55.34Z"/><path class="cls-1" d="M236.06,55.34a2.07,2.07,0,1,0,2.07,2.06A2.07,2.07,0,0,0,236.06,55.34Z"/><path class="cls-1" d="M2.07,69.17a2.07,2.07,0,1,0,2.06,2.07A2.07,2.07,0,0,0,2.07,69.17Z"/><path class="cls-1" d="M15.83,69.17a2.07,2.07,0,1,0,2.07,2.07A2.07,2.07,0,0,0,15.83,69.17Z"/><path class="cls-1" d="M29.6,69.17a2.07,2.07,0,1,0,2.06,2.07A2.07,2.07,0,0,0,29.6,69.17Z"/><path class="cls-1" d="M43.36,69.17a2.07,2.07,0,1,0,2.07,2.07A2.07,2.07,0,0,0,43.36,69.17Z"/><path class="cls-1" d="M57.12,69.17a2.07,2.07,0,1,0,2.07,2.07A2.07,2.07,0,0,0,57.12,69.17Z"/><path class="cls-1" d="M70.89,69.17A2.07,2.07,0,1,0,73,71.24,2.07,2.07,0,0,0,70.89,69.17Z"/><path class="cls-1" d="M84.65,69.17a2.07,2.07,0,1,0,2.07,2.07A2.07,2.07,0,0,0,84.65,69.17Z"/><path class="cls-1" d="M98.42,69.17a2.07,2.07,0,1,0,2.06,2.07A2.07,2.07,0,0,0,98.42,69.17Z"/><path class="cls-1" d="M112.18,69.17a2.07,2.07,0,1,0,2.07,2.07A2.07,2.07,0,0,0,112.18,69.17Z"/><path class="cls-1" d="M125.94,69.17A2.07,2.07,0,1,0,128,71.24,2.07,2.07,0,0,0,125.94,69.17Z"/><path class="cls-1" d="M139.71,69.17a2.07,2.07,0,1,0,2.07,2.07A2.07,2.07,0,0,0,139.71,69.17Z"/><path class="cls-1" d="M153.47,69.17a2.07,2.07,0,1,0,2.07,2.07A2.07,2.07,0,0,0,153.47,69.17Z"/><path class="cls-1" d="M167.24,69.17a2.07,2.07,0,1,0,2.06,2.07A2.07,2.07,0,0,0,167.24,69.17Z"/><path class="cls-1" d="M181,69.17a2.07,2.07,0,1,0,2.07,2.07A2.07,2.07,0,0,0,181,69.17Z"/><path class="cls-1" d="M194.77,69.17a2.07,2.07,0,1,0,2.06,2.07A2.07,2.07,0,0,0,194.77,69.17Z"/><path class="cls-1" d="M208.53,69.17a2.07,2.07,0,1,0,2.07,2.07A2.07,2.07,0,0,0,208.53,69.17Z"/><path class="cls-1" d="M222.29,69.17a2.07,2.07,0,1,0,2.07,2.07A2.07,2.07,0,0,0,222.29,69.17Z"/><path class="cls-1" d="M236.06,69.17a2.07,2.07,0,1,0,2.07,2.07A2.07,2.07,0,0,0,236.06,69.17Z"/><path class="cls-1" d="M2.07,83a2.07,2.07,0,1,0,2.06,2.06A2.07,2.07,0,0,0,2.07,83Z"/><path class="cls-1" d="M15.83,83a2.07,2.07,0,1,0,2.07,2.06A2.07,2.07,0,0,0,15.83,83Z"/><path class="cls-1" d="M29.6,83a2.07,2.07,0,1,0,2.06,2.06A2.06,2.06,0,0,0,29.6,83Z"/><path class="cls-1" d="M43.36,83a2.07,2.07,0,1,0,2.07,2.06A2.07,2.07,0,0,0,43.36,83Z"/><path class="cls-1" d="M57.12,83a2.07,2.07,0,1,0,2.07,2.06A2.06,2.06,0,0,0,57.12,83Z"/><path class="cls-1" d="M70.89,83A2.07,2.07,0,1,0,73,85.07,2.07,2.07,0,0,0,70.89,83Z"/><path class="cls-1" d="M84.65,83a2.07,2.07,0,1,0,2.07,2.06A2.06,2.06,0,0,0,84.65,83Z"/><path class="cls-1" d="M98.42,83a2.07,2.07,0,1,0,2.06,2.06A2.06,2.06,0,0,0,98.42,83Z"/><path class="cls-1" d="M112.18,83a2.07,2.07,0,1,0,2.07,2.06A2.07,2.07,0,0,0,112.18,83Z"/><path class="cls-1" d="M125.94,83A2.07,2.07,0,1,0,128,85.07,2.06,2.06,0,0,0,125.94,83Z"/><path class="cls-1" d="M139.71,83a2.07,2.07,0,1,0,2.07,2.06A2.07,2.07,0,0,0,139.71,83Z"/><path class="cls-1" d="M153.47,83a2.07,2.07,0,1,0,2.07,2.06A2.06,2.06,0,0,0,153.47,83Z"/><path class="cls-1" d="M167.24,83a2.07,2.07,0,1,0,2.06,2.06A2.07,2.07,0,0,0,167.24,83Z"/><path class="cls-1" d="M181,83a2.07,2.07,0,1,0,2.07,2.06A2.07,2.07,0,0,0,181,83Z"/><path class="cls-1" d="M194.77,83a2.07,2.07,0,1,0,2.06,2.06A2.06,2.06,0,0,0,194.77,83Z"/><path class="cls-1" d="M208.53,83a2.07,2.07,0,1,0,2.07,2.06A2.07,2.07,0,0,0,208.53,83Z"/><path class="cls-1" d="M222.29,83a2.07,2.07,0,1,0,2.07,2.06A2.06,2.06,0,0,0,222.29,83Z"/><path class="cls-1" d="M236.06,83a2.07,2.07,0,1,0,2.07,2.06A2.07,2.07,0,0,0,236.06,83Z"/><path class="cls-1" d="M2.07,96.84a2.07,2.07,0,1,0,2.06,2.07A2.07,2.07,0,0,0,2.07,96.84Z"/><path class="cls-1" d="M15.83,96.84a2.07,2.07,0,1,0,2.07,2.07A2.07,2.07,0,0,0,15.83,96.84Z"/><path class="cls-1" d="M29.6,96.84a2.07,2.07,0,1,0,2.06,2.07A2.07,2.07,0,0,0,29.6,96.84Z"/><path class="cls-1" d="M43.36,96.84a2.07,2.07,0,1,0,2.07,2.07A2.07,2.07,0,0,0,43.36,96.84Z"/><path class="cls-1" d="M57.12,96.84a2.07,2.07,0,1,0,2.07,2.07A2.07,2.07,0,0,0,57.12,96.84Z"/><path class="cls-1" d="M70.89,96.84A2.07,2.07,0,1,0,73,98.91,2.07,2.07,0,0,0,70.89,96.84Z"/><path class="cls-1" d="M84.65,96.84a2.07,2.07,0,1,0,2.07,2.07A2.07,2.07,0,0,0,84.65,96.84Z"/><path class="cls-1" d="M98.42,96.84a2.07,2.07,0,1,0,2.06,2.07A2.07,2.07,0,0,0,98.42,96.84Z"/><path class="cls-1" d="M112.18,96.84a2.07,2.07,0,1,0,2.07,2.07A2.07,2.07,0,0,0,112.18,96.84Z"/><path class="cls-1" d="M125.94,96.84A2.07,2.07,0,1,0,128,98.91,2.07,2.07,0,0,0,125.94,96.84Z"/><path class="cls-1" d="M139.71,96.84a2.07,2.07,0,1,0,2.07,2.07A2.07,2.07,0,0,0,139.71,96.84Z"/><path class="cls-1" d="M153.47,96.84a2.07,2.07,0,1,0,2.07,2.07A2.07,2.07,0,0,0,153.47,96.84Z"/><path class="cls-1" d="M167.24,96.84a2.07,2.07,0,1,0,2.06,2.07A2.07,2.07,0,0,0,167.24,96.84Z"/><path class="cls-1" d="M181,96.84a2.07,2.07,0,1,0,2.07,2.07A2.07,2.07,0,0,0,181,96.84Z"/><path class="cls-1" d="M194.77,96.84a2.07,2.07,0,1,0,2.06,2.07A2.07,2.07,0,0,0,194.77,96.84Z"/><path class="cls-1" d="M208.53,96.84a2.07,2.07,0,1,0,2.07,2.07A2.07,2.07,0,0,0,208.53,96.84Z"/><path class="cls-1" d="M222.29,96.84a2.07,2.07,0,1,0,2.07,2.07A2.07,2.07,0,0,0,222.29,96.84Z"/><path class="cls-1" d="M236.06,96.84a2.07,2.07,0,1,0,2.07,2.07A2.07,2.07,0,0,0,236.06,96.84Z"/><path class="cls-1" d="M2.07,110.67a2.07,2.07,0,1,0,2.06,2.07A2.07,2.07,0,0,0,2.07,110.67Z"/><path class="cls-1" d="M15.83,110.67a2.07,2.07,0,1,0,2.07,2.07A2.07,2.07,0,0,0,15.83,110.67Z"/><path class="cls-1" d="M29.6,110.67a2.07,2.07,0,1,0,2.06,2.07A2.07,2.07,0,0,0,29.6,110.67Z"/><path class="cls-1" d="M43.36,110.67a2.07,2.07,0,1,0,2.07,2.07A2.07,2.07,0,0,0,43.36,110.67Z"/><path class="cls-1" d="M57.12,110.67a2.07,2.07,0,1,0,2.07,2.07A2.07,2.07,0,0,0,57.12,110.67Z"/><path class="cls-1" d="M70.89,110.67A2.07,2.07,0,1,0,73,112.74,2.07,2.07,0,0,0,70.89,110.67Z"/><path class="cls-1" d="M84.65,110.67a2.07,2.07,0,1,0,2.07,2.07A2.07,2.07,0,0,0,84.65,110.67Z"/><path class="cls-1" d="M98.42,110.67a2.07,2.07,0,1,0,2.06,2.07A2.07,2.07,0,0,0,98.42,110.67Z"/><path class="cls-1" d="M112.18,110.67a2.07,2.07,0,1,0,2.07,2.07A2.07,2.07,0,0,0,112.18,110.67Z"/><path class="cls-1" d="M125.94,110.67a2.07,2.07,0,1,0,2.07,2.07A2.07,2.07,0,0,0,125.94,110.67Z"/><path class="cls-1" d="M139.71,110.67a2.07,2.07,0,1,0,2.07,2.07A2.07,2.07,0,0,0,139.71,110.67Z"/><path class="cls-1" d="M153.47,110.67a2.07,2.07,0,1,0,2.07,2.07A2.07,2.07,0,0,0,153.47,110.67Z"/><path class="cls-1" d="M167.24,110.67a2.07,2.07,0,1,0,2.06,2.07A2.07,2.07,0,0,0,167.24,110.67Z"/><path class="cls-1" d="M181,110.67a2.07,2.07,0,1,0,2.07,2.07A2.07,2.07,0,0,0,181,110.67Z"/><path class="cls-1" d="M194.77,110.67a2.07,2.07,0,1,0,2.06,2.07A2.07,2.07,0,0,0,194.77,110.67Z"/><path class="cls-1" d="M208.53,110.67a2.07,2.07,0,1,0,2.07,2.07A2.07,2.07,0,0,0,208.53,110.67Z"/><path class="cls-1" d="M222.29,110.67a2.07,2.07,0,1,0,2.07,2.07A2.07,2.07,0,0,0,222.29,110.67Z"/><path class="cls-1" d="M236.06,110.67a2.07,2.07,0,1,0,2.07,2.07A2.07,2.07,0,0,0,236.06,110.67Z"/><path class="cls-1" d="M2.07,124.51a2.07,2.07,0,1,0,2.06,2.07A2.07,2.07,0,0,0,2.07,124.51Z"/><path class="cls-1" d="M15.83,124.51a2.07,2.07,0,1,0,2.07,2.07A2.07,2.07,0,0,0,15.83,124.51Z"/><path class="cls-1" d="M29.6,124.51a2.07,2.07,0,1,0,2.06,2.07A2.06,2.06,0,0,0,29.6,124.51Z"/><path class="cls-1" d="M43.36,124.51a2.07,2.07,0,1,0,2.07,2.07A2.07,2.07,0,0,0,43.36,124.51Z"/><path class="cls-1" d="M57.12,124.51a2.07,2.07,0,1,0,2.07,2.07A2.06,2.06,0,0,0,57.12,124.51Z"/><path class="cls-1" d="M70.89,124.51A2.07,2.07,0,1,0,73,126.58,2.07,2.07,0,0,0,70.89,124.51Z"/><path class="cls-1" d="M84.65,124.51a2.07,2.07,0,1,0,2.07,2.07A2.06,2.06,0,0,0,84.65,124.51Z"/><path class="cls-1" d="M98.42,124.51a2.07,2.07,0,1,0,2.06,2.07A2.06,2.06,0,0,0,98.42,124.51Z"/><path class="cls-1" d="M112.18,124.51a2.07,2.07,0,1,0,2.07,2.07A2.07,2.07,0,0,0,112.18,124.51Z"/><path class="cls-1" d="M125.94,124.51a2.07,2.07,0,1,0,2.07,2.07A2.06,2.06,0,0,0,125.94,124.51Z"/><path class="cls-1" d="M139.71,124.51a2.07,2.07,0,1,0,2.07,2.07A2.07,2.07,0,0,0,139.71,124.51Z"/><path class="cls-1" d="M153.47,124.51a2.07,2.07,0,1,0,2.07,2.07A2.06,2.06,0,0,0,153.47,124.51Z"/><path class="cls-1" d="M167.24,124.51a2.07,2.07,0,1,0,2.06,2.07A2.07,2.07,0,0,0,167.24,124.51Z"/><path class="cls-1" d="M181,124.51a2.07,2.07,0,1,0,2.07,2.07A2.07,2.07,0,0,0,181,124.51Z"/><path class="cls-1" d="M194.77,124.51a2.07,2.07,0,1,0,2.06,2.07A2.06,2.06,0,0,0,194.77,124.51Z"/><path class="cls-1" d="M208.53,124.51a2.07,2.07,0,1,0,2.07,2.07A2.07,2.07,0,0,0,208.53,124.51Z"/><path class="cls-1" d="M222.29,124.51a2.07,2.07,0,1,0,2.07,2.07A2.06,2.06,0,0,0,222.29,124.51Z"/><path class="cls-1" d="M236.06,124.51a2.07,2.07,0,1,0,2.07,2.07A2.07,2.07,0,0,0,236.06,124.51Z"/><path class="cls-1" d="M2.07,138.34a2.07,2.07,0,1,0,2.06,2.07A2.07,2.07,0,0,0,2.07,138.34Z"/><path class="cls-1" d="M15.83,138.34a2.07,2.07,0,1,0,2.07,2.07A2.07,2.07,0,0,0,15.83,138.34Z"/><path class="cls-1" d="M29.6,138.34a2.07,2.07,0,1,0,2.06,2.07A2.07,2.07,0,0,0,29.6,138.34Z"/><path class="cls-1" d="M43.36,138.34a2.07,2.07,0,1,0,2.07,2.07A2.07,2.07,0,0,0,43.36,138.34Z"/><path class="cls-1" d="M57.12,138.34a2.07,2.07,0,1,0,2.07,2.07A2.07,2.07,0,0,0,57.12,138.34Z"/><path class="cls-1" d="M70.89,138.34A2.07,2.07,0,1,0,73,140.41,2.07,2.07,0,0,0,70.89,138.34Z"/><path class="cls-1" d="M84.65,138.34a2.07,2.07,0,1,0,2.07,2.07A2.07,2.07,0,0,0,84.65,138.34Z"/><path class="cls-1" d="M98.42,138.34a2.07,2.07,0,1,0,2.06,2.07A2.07,2.07,0,0,0,98.42,138.34Z"/><path class="cls-1" d="M112.18,138.34a2.07,2.07,0,1,0,2.07,2.07A2.07,2.07,0,0,0,112.18,138.34Z"/><path class="cls-1" d="M125.94,138.34a2.07,2.07,0,1,0,2.07,2.07A2.07,2.07,0,0,0,125.94,138.34Z"/><path class="cls-1" d="M139.71,138.34a2.07,2.07,0,1,0,2.07,2.07A2.07,2.07,0,0,0,139.71,138.34Z"/><path class="cls-1" d="M153.47,138.34a2.07,2.07,0,1,0,2.07,2.07A2.07,2.07,0,0,0,153.47,138.34Z"/><path class="cls-1" d="M167.24,138.34a2.07,2.07,0,1,0,2.06,2.07A2.07,2.07,0,0,0,167.24,138.34Z"/><path class="cls-1" d="M181,138.34a2.07,2.07,0,1,0,2.07,2.07A2.07,2.07,0,0,0,181,138.34Z"/><path class="cls-1" d="M194.77,138.34a2.07,2.07,0,1,0,2.06,2.07A2.07,2.07,0,0,0,194.77,138.34Z"/><path class="cls-1" d="M208.53,138.34a2.07,2.07,0,1,0,2.07,2.07A2.07,2.07,0,0,0,208.53,138.34Z"/><path class="cls-1" d="M222.29,138.34a2.07,2.07,0,1,0,2.07,2.07A2.07,2.07,0,0,0,222.29,138.34Z"/><path class="cls-1" d="M236.06,138.34a2.07,2.07,0,1,0,2.07,2.07A2.07,2.07,0,0,0,236.06,138.34Z"/><path class="cls-1" d="M2.07,152.18a2.07,2.07,0,1,0,2.06,2.06A2.07,2.07,0,0,0,2.07,152.18Z"/><path class="cls-1" d="M15.83,152.18a2.07,2.07,0,1,0,2.07,2.06A2.07,2.07,0,0,0,15.83,152.18Z"/><path class="cls-1" d="M29.6,152.18a2.07,2.07,0,1,0,2.06,2.06A2.06,2.06,0,0,0,29.6,152.18Z"/><path class="cls-1" d="M43.36,152.18a2.07,2.07,0,1,0,2.07,2.06A2.07,2.07,0,0,0,43.36,152.18Z"/><path class="cls-1" d="M57.12,152.18a2.07,2.07,0,1,0,2.07,2.06A2.06,2.06,0,0,0,57.12,152.18Z"/><path class="cls-1" d="M70.89,152.18A2.07,2.07,0,1,0,73,154.24,2.07,2.07,0,0,0,70.89,152.18Z"/><path class="cls-1" d="M84.65,152.18a2.07,2.07,0,1,0,2.07,2.06A2.06,2.06,0,0,0,84.65,152.18Z"/><path class="cls-1" d="M98.42,152.18a2.07,2.07,0,1,0,2.06,2.06A2.06,2.06,0,0,0,98.42,152.18Z"/><path class="cls-1" d="M112.18,152.18a2.07,2.07,0,1,0,2.07,2.06A2.07,2.07,0,0,0,112.18,152.18Z"/><path class="cls-1" d="M125.94,152.18a2.07,2.07,0,1,0,2.07,2.06A2.06,2.06,0,0,0,125.94,152.18Z"/><path class="cls-1" d="M139.71,152.18a2.07,2.07,0,1,0,2.07,2.06A2.07,2.07,0,0,0,139.71,152.18Z"/><path class="cls-1" d="M153.47,152.18a2.07,2.07,0,1,0,2.07,2.06A2.06,2.06,0,0,0,153.47,152.18Z"/><path class="cls-1" d="M167.24,152.18a2.07,2.07,0,1,0,2.06,2.06A2.07,2.07,0,0,0,167.24,152.18Z"/><path class="cls-1" d="M181,152.18a2.07,2.07,0,1,0,2.07,2.06A2.07,2.07,0,0,0,181,152.18Z"/><path class="cls-1" d="M194.77,152.18a2.07,2.07,0,1,0,2.06,2.06A2.06,2.06,0,0,0,194.77,152.18Z"/><path class="cls-1" d="M208.53,152.18a2.07,2.07,0,1,0,2.07,2.06A2.07,2.07,0,0,0,208.53,152.18Z"/><path class="cls-1" d="M222.29,152.18a2.07,2.07,0,1,0,2.07,2.06A2.06,2.06,0,0,0,222.29,152.18Z"/><path class="cls-1" d="M236.06,152.18a2.07,2.07,0,1,0,2.07,2.06A2.07,2.07,0,0,0,236.06,152.18Z"/><path class="cls-1" d="M2.07,166a2.07,2.07,0,1,0,2.06,2.07A2.07,2.07,0,0,0,2.07,166Z"/><path class="cls-1" d="M15.83,166a2.07,2.07,0,1,0,2.07,2.07A2.07,2.07,0,0,0,15.83,166Z"/><path class="cls-1" d="M29.6,166a2.07,2.07,0,1,0,2.06,2.07A2.07,2.07,0,0,0,29.6,166Z"/><path class="cls-1" d="M43.36,166a2.07,2.07,0,1,0,2.07,2.07A2.07,2.07,0,0,0,43.36,166Z"/><path class="cls-1" d="M57.12,166a2.07,2.07,0,1,0,2.07,2.07A2.07,2.07,0,0,0,57.12,166Z"/><path class="cls-1" d="M70.89,166A2.07,2.07,0,1,0,73,168.08,2.07,2.07,0,0,0,70.89,166Z"/><path class="cls-1" d="M84.65,166a2.07,2.07,0,1,0,2.07,2.07A2.07,2.07,0,0,0,84.65,166Z"/><path class="cls-1" d="M98.42,166a2.07,2.07,0,1,0,2.06,2.07A2.07,2.07,0,0,0,98.42,166Z"/><path class="cls-1" d="M112.18,166a2.07,2.07,0,1,0,2.07,2.07A2.07,2.07,0,0,0,112.18,166Z"/><path class="cls-1" d="M125.94,166a2.07,2.07,0,1,0,2.07,2.07A2.07,2.07,0,0,0,125.94,166Z"/><path class="cls-1" d="M139.71,166a2.07,2.07,0,1,0,2.07,2.07A2.07,2.07,0,0,0,139.71,166Z"/><path class="cls-1" d="M153.47,166a2.07,2.07,0,1,0,2.07,2.07A2.07,2.07,0,0,0,153.47,166Z"/><path class="cls-1" d="M167.24,166a2.07,2.07,0,1,0,2.06,2.07A2.07,2.07,0,0,0,167.24,166Z"/><path class="cls-1" d="M181,166a2.07,2.07,0,1,0,2.07,2.07A2.07,2.07,0,0,0,181,166Z"/><path class="cls-1" d="M194.77,166a2.07,2.07,0,1,0,2.06,2.07A2.07,2.07,0,0,0,194.77,166Z"/><path class="cls-1" d="M208.53,166a2.07,2.07,0,1,0,2.07,2.07A2.07,2.07,0,0,0,208.53,166Z"/><path class="cls-1" d="M222.29,166a2.07,2.07,0,1,0,2.07,2.07A2.07,2.07,0,0,0,222.29,166Z"/><path class="cls-1" d="M236.06,166a2.07,2.07,0,1,0,2.07,2.07A2.07,2.07,0,0,0,236.06,166Z"/><path class="cls-1" d="M2.07,179.85a2.07,2.07,0,1,0,2.06,2.06A2.07,2.07,0,0,0,2.07,179.85Z"/><path class="cls-1" d="M15.83,179.85a2.07,2.07,0,1,0,2.07,2.06A2.07,2.07,0,0,0,15.83,179.85Z"/><path class="cls-1" d="M29.6,179.85a2.07,2.07,0,1,0,2.06,2.06A2.06,2.06,0,0,0,29.6,179.85Z"/><path class="cls-1" d="M43.36,179.85a2.07,2.07,0,1,0,2.07,2.06A2.07,2.07,0,0,0,43.36,179.85Z"/><path class="cls-1" d="M57.12,179.85a2.07,2.07,0,1,0,2.07,2.06A2.06,2.06,0,0,0,57.12,179.85Z"/><path class="cls-1" d="M70.89,179.85A2.07,2.07,0,1,0,73,181.91,2.07,2.07,0,0,0,70.89,179.85Z"/><path class="cls-1" d="M84.65,179.85a2.07,2.07,0,1,0,2.07,2.06A2.06,2.06,0,0,0,84.65,179.85Z"/><path class="cls-1" d="M98.42,179.85a2.07,2.07,0,1,0,2.06,2.06A2.06,2.06,0,0,0,98.42,179.85Z"/><path class="cls-1" d="M112.18,179.85a2.07,2.07,0,1,0,2.07,2.06A2.07,2.07,0,0,0,112.18,179.85Z"/><path class="cls-1" d="M125.94,179.85a2.07,2.07,0,1,0,2.07,2.06A2.06,2.06,0,0,0,125.94,179.85Z"/><path class="cls-1" d="M139.71,179.85a2.07,2.07,0,1,0,2.07,2.06A2.07,2.07,0,0,0,139.71,179.85Z"/><path class="cls-1" d="M153.47,179.85a2.07,2.07,0,1,0,2.07,2.06A2.06,2.06,0,0,0,153.47,179.85Z"/><path class="cls-1" d="M167.24,179.85a2.07,2.07,0,1,0,2.06,2.06A2.07,2.07,0,0,0,167.24,179.85Z"/><path class="cls-1" d="M181,179.85a2.07,2.07,0,1,0,2.07,2.06A2.07,2.07,0,0,0,181,179.85Z"/><path class="cls-1" d="M194.77,179.85a2.07,2.07,0,1,0,2.06,2.06A2.06,2.06,0,0,0,194.77,179.85Z"/><path class="cls-1" d="M208.53,179.85a2.07,2.07,0,1,0,2.07,2.06A2.07,2.07,0,0,0,208.53,179.85Z"/><path class="cls-1" d="M222.29,179.85a2.07,2.07,0,1,0,2.07,2.06A2.06,2.06,0,0,0,222.29,179.85Z"/><path class="cls-1" d="M236.06,179.85a2.07,2.07,0,1,0,2.07,2.06A2.07,2.07,0,0,0,236.06,179.85Z"/></g></g></svg>